<?xml version="1.0" encoding="utf-8"?>
<!-- Generator: Adobe Illustrator 24.0.0, SVG Export Plug-In . SVG Version: 6.00 Build 0)  -->
<svg version="1.1" id="Layer_1" xmlns="http://www.w3.org/2000/svg" xmlns:xlink="http://www.w3.org/1999/xlink" x="0px" y="0px"
	 viewBox="0 0 200 200" style="enable-background:new 0 0 200 200;" xml:space="preserve">
<style type="text/css">
	.st0{fill:#FFFFFF;}
</style>
<path id="Path_645" class="st0" d="M99.6,2.2C45.8,2.2,2.2,45.8,2.2,99.7s43.6,97.5,97.5,97.5s97.5-43.6,97.5-97.5c0,0,0,0,0,0
	C197,45.9,153.4,2.4,99.6,2.2z M163,150.8c-2.4-4.9-6.5-8.1-15.4-9.7c-18.7-4.1-35.7-8.1-27.6-23.6c25.2-48.7,6.5-74.7-20.3-74.7
	c-27.6,0-45.5,26.8-20.3,73.9c8.9,16.2-8.9,19.5-27.6,23.6c-8.9,1.6-13,5.7-15.4,9.7c-11.8-14.1-18.2-32-17.9-50.4
	c0-44.9,36.4-81.2,81.2-81.2s81.2,36.4,81.2,81.2C181,118.3,174.7,136.4,163,150.8L163,150.8z"/>
</svg>
