<?xml version="1.0" encoding="utf-8"?>
<!-- Generator: Adobe Illustrator 24.0.0, SVG Export Plug-In . SVG Version: 6.00 Build 0)  -->
<svg version="1.1" id="Layer_1" xmlns="http://www.w3.org/2000/svg" xmlns:xlink="http://www.w3.org/1999/xlink" x="0px" y="0px"
	 viewBox="0 0 200 168.4" style="enable-background:new 0 0 200 168.4;" xml:space="preserve">
<style type="text/css">
	.st0{fill:#FFFFFF;}
</style>
<g id="Group_400">
	<path id="Path_634" class="st0" d="M152.3,151.5c0,8.3,6.7,15,14.9,15c8.3,0,15-6.7,15-14.9c0-8.3-6.7-15-14.9-15
		c-4,0-7.8,1.6-10.6,4.4C153.8,143.7,152.2,147.5,152.3,151.5z"/>
	<path id="Path_635" class="st0" d="M195,19.1c-1.4-1.4-3.3-2.2-5.2-2.2H49.4c-0.1-0.5-0.2-1.6-0.5-3c-0.3-1.4-0.5-2.6-0.7-3.4
		c-0.2-1.1-0.5-2.1-0.9-3.1c-0.3-1-0.8-2-1.5-2.9c-0.6-0.8-1.4-1.4-2.3-1.8c-1-0.5-2.2-0.8-3.3-0.8H10.3c-2,0-3.9,0.8-5.3,2.2
		C3.6,5.5,2.8,7.5,2.8,9.4c0,2,0.8,3.9,2.2,5.2c1.4,1.4,3.3,2.2,5.3,2.2h23.8L54.7,113c-0.2,0.3-0.9,1.8-2.4,4.4
		c-1.4,2.7-2.6,5-3.4,7c-0.7,1.4-1.1,3-1.3,4.6c0,2,0.8,3.9,2.2,5.3c1.4,1.4,3.3,2.2,5.3,2.2h119.7c4.1,0,7.5-3.3,7.5-7.5
		c0-4.1-3.3-7.5-7.5-7.5H67.3c1.4-2.3,2.3-4.8,2.8-7.5c0-0.9-0.1-1.7-0.3-2.6c-0.2-0.9-0.4-2-0.7-3.1s-0.4-2-0.5-2.5l122-14.2
		c1.9-0.2,3.6-1.1,4.8-2.5c1.2-1.4,1.9-3.1,1.9-5V24.4C197.2,22.4,196.4,20.5,195,19.1z"/>
	<path id="Path_636" class="st0" d="M47.6,151.5c0,8.3,6.7,15,14.9,15c8.3,0,15-6.7,15-14.9c0-8.3-6.7-15-14.9-15
		c-4,0-7.8,1.6-10.6,4.4C49.1,143.7,47.6,147.5,47.6,151.5z"/>
</g>
</svg>
