<?xml version="1.0" encoding="utf-8"?>
<!-- Generator: Adobe Illustrator 24.0.0, SVG Export Plug-In . SVG Version: 6.00 Build 0)  -->
<svg version="1.1" id="Layer_1" xmlns="http://www.w3.org/2000/svg" xmlns:xlink="http://www.w3.org/1999/xlink" x="0px" y="0px"
	 viewBox="0 0 1500 1500" style="enable-background:new 0 0 1500 1500;" xml:space="preserve">
<style type="text/css">
	.st0{fill:#03ADC4;}
	.st1{fill:#DC2A27;}
	.st2{clip-path:url(#SVGID_2_);}
	.st3{fill:#FFFFFF;}
	.st4{fill:#DB2614;}
</style>
<g>
	<g>
		<g>
			<circle class="st0" cx="749.7" cy="750.3" r="726"/>
		</g>
	</g>
	<g>
		<g>
			<path class="st1" d="M63.8,988.8c98.7,283.8,368.5,487.5,685.9,487.5c317.4,0,587.2-203.7,685.9-487.5H63.8z"/>
		</g>
	</g>
	<g>
		<g>
			<path class="st0" d="M1069.6,1031.5l-14.2,60.2h335.1c54.3-101.8,85.2-218,85.2-341.4c0-401-325.1-726-726-726
				s-726,325.1-726,726c0,99.7,20.1,194.7,56.5,281.2H1069.6z"/>
		</g>
	</g>
	<g>
		<defs>
			<circle id="SVGID_1_" cx="749.7" cy="750.3" r="726"/>
		</defs>
		<clipPath id="SVGID_2_">
			<use xlink:href="#SVGID_1_"  style="overflow:visible;"/>
		</clipPath>
		<g class="st2">
			<g>
				<g>
					<rect x="1055.3" y="1064.7" class="st3" width="374.4" height="57.6"/>
				</g>
			</g>
		</g>
		<g class="st2">
			<g>
				<g>
					<rect x="25.1" y="1001.9" class="st3" width="1074.3" height="57.6"/>
				</g>
			</g>
		</g>
	</g>
	<g>
		<g>
			<path class="st3" d="M749.7,1487.5c-196.9,0-382.1-76.7-521.3-215.9C89.1,1132.4,12.5,947.2,12.5,750.3
				c0-196.9,76.7-382.1,215.9-521.3C367.6,89.7,552.8,13,749.7,13c196.9,0,382.1,76.7,521.3,215.9
				C1410.3,368.2,1487,553.3,1487,750.3c0,196.9-76.7,382.1-215.9,521.3C1131.8,1410.9,946.7,1487.5,749.7,1487.5z M749.7,35.5
				c-190.9,0-370.4,74.4-505.4,209.4c-135,135-209.4,314.5-209.4,505.4s74.4,370.4,209.4,505.4c135,135,314.5,209.4,505.4,209.4
				s370.4-74.4,505.4-209.4c135-135,209.4-314.5,209.4-505.4s-74.4-370.4-209.4-505.4C1120.2,109.8,940.7,35.5,749.7,35.5z"/>
		</g>
	</g>
	<g>
		<g>
			<g>
				<path class="st3" d="M546.6,694.9h-390c-9.3,0-16.9-7.5-16.9-16.9c0-9.3,7.5-16.9,16.9-16.9h390c9.3,0,16.9,7.5,16.9,16.9
					C563.4,687.4,555.9,694.9,546.6,694.9z"/>
			</g>
		</g>
		<g>
			<g>
				<path class="st3" d="M546.6,792.8h-313c-9.3,0-16.9-7.5-16.9-16.9c0-9.3,7.5-16.9,16.9-16.9h313c9.3,0,16.9,7.5,16.9,16.9
					C563.4,785.3,555.9,792.8,546.6,792.8z"/>
			</g>
		</g>
		<g>
			<g>
				<path class="st3" d="M546.6,890.8h-195c-9.3,0-16.9-7.5-16.9-16.9c0-9.3,7.5-16.9,16.9-16.9h195c9.3,0,16.9,7.5,16.9,16.9
					C563.4,883.2,555.9,890.8,546.6,890.8z"/>
			</g>
		</g>
	</g>
	<g>
		<g>
			<path class="st3" d="M762.7,606.5c13-3.4,26-4.8,39-4.8c31.5,0,63,8.9,90.4,26.7c27.4,17.8,49.3,43.2,63.7,73.3
				c4.8,11,8.9,24,11.6,36.3l2.7,15.1l-278.8,66.4c10.3,30.8,30.8,52.1,61,67.1c24,11.6,50.7,15.1,76.7,8.9
				c30.8-7.5,57.5-27.4,73.3-55.5l49.3,22.6c-10.3,19.2-24,36.3-40.4,50.7c-20.5,17.1-43.8,29.5-69.9,35.6
				c-44.5,11-90.4,2.7-128.8-21.9c-39-25.3-65.8-64.4-76-109.6c-11-45.9-3.4-93.2,20.5-132.9C681.2,644.9,718.9,616.8,762.7,606.5z
				 M775.7,659.9c-23.3,5.5-43.8,17.8-59.6,35.6c-9.6,11-17.1,23.3-21.9,37c-5.5,14.4-8.9,28.8-10.3,43.8l223.3-53.4
				c-15.8-26-35.6-46.6-63.7-58.2C821.6,656.5,798.3,654.5,775.7,659.9z"/>
			<path class="st3" d="M802.3,959.4c-32.3,0-64.2-9.4-92.6-27.6c-39.9-25.9-67.8-66.1-78.5-113.1c-11.2-47-3.7-95.7,21.2-137
				c25-41.4,63.7-70,108.9-80.6c12.7-3.3,25.9-5,40.4-5c33.4,0,65.7,9.6,93.5,27.6c28.1,18.3,50.8,44.4,65.7,75.6
				c4.9,11.2,9.2,24.5,12.1,37.5l3.7,20.5l-277.8,66.2c10,25.5,28,44.1,56,58.1c23.3,11.3,48.5,14.2,72.9,8.5
				c29.5-7.2,54.9-26.4,69.7-52.8l2.5-4.5l59.5,27.3l-2.8,5.3c-10.6,19.7-24.6,37.3-41.7,52.3c-22,18.3-46.3,30.7-72.3,36.9
				C829.3,957.8,815.8,959.4,802.3,959.4z M801.8,607.3c-13.5,0-25.8,1.5-37.6,4.6l-0.1,0c-42.4,9.9-78.6,36.7-102,75.5
				c-23.4,38.8-30.5,84.5-19.9,128.7c10,44.2,36.2,81.9,73.6,106.2c37.6,24.1,81.7,31.7,124.4,21.2c24.3-5.8,47.1-17.4,67.6-34.5
				c14.4-12.6,26.6-27.4,36.1-43.8l-39.2-18c-16.6,26.7-43.3,46.2-74.2,53.7c-27,6.4-54.8,3.2-80.5-9.3
				c-32.6-16.3-53.5-39.3-63.8-70.4l-1.9-5.8l279.6-66.6L962,739c-2.7-12.1-6.7-24.7-11.3-35.1c-13.9-29.1-35.2-53.7-61.6-70.8
				C863.1,616.3,832.9,607.3,801.8,607.3z M677.6,783.7l0.7-7.8c1.4-15.4,4.9-30.3,10.6-45.3c4.8-13.7,12.5-26.8,22.9-38.7
				c16.6-18.7,38.2-31.7,62.5-37.4c23-5.6,47.5-3.8,71.1,5c26.9,11.1,48.6,30.9,66.5,60.6l4,6.6L677.6,783.7z M801.4,662.5
				c-8.3,0-16.4,1-24.4,2.9l0,0c-22.1,5.2-41.7,16.9-56.7,33.9c-9.4,10.8-16.4,22.6-20.8,35.1c-4.4,11.6-7.4,23-9.1,34.6l207.8-49.7
				c-15.9-24.2-34.1-40-56.9-49.4C828.3,665,814.7,662.5,801.4,662.5z"/>
		</g>
	</g>
	<g>
		<g>
			<path class="st3" d="M1315.8,1116.8H1007l222.5-278.3h-187.9v-45.8H1333l-223.1,277.6h205.9V1116.8z"/>
			<path class="st3" d="M1321.4,1122.4H995.3l222.5-278.3h-181.9v-57.1h308.9l-223.1,277.6h199.8V1122.4z M1018.6,1111.2h291.5
				v-35.2h-212l223.1-277.6h-274.2v34.6h194L1018.6,1111.2z"/>
		</g>
	</g>
	<g>
		<g>
			<g>
				<path class="st1" d="M1063.6,514.3c-209.3,0-418.5,0-627.8,0c-0.4-0.2-0.8-0.4-1.3-0.4c-10.7-0.9-21-3.4-31.1-6.9
					c-13.7-4.7-26.3-11.4-37.8-20.1c-17.2-13-30.9-29-41-48.2c-8.1-15.5-13.3-31.8-15.7-49.1c-0.6-4.2-1.1-8.4-1.7-12.6
					c0-4.8,0-9.6,0-14.5c0.3-1.7,0.8-3.4,1-5.1c1.1-7,2-14.1,3.4-21.1c3-14.8,8.7-28.6,16.4-41.5c12.1-20.3,28.2-36.9,48.5-49.3
					c22.6-13.9,47.2-20.7,73.6-20.7c199.1-0.1,398.3-0.1,597.4-0.1c16.4,0,32.5,2.3,48.1,7.7c20.5,7,38.4,18.1,53.7,33.3
					c12.4,12.4,22.3,26.5,29.6,42.5c6.9,15.1,11.3,30.9,12.7,47.4c1.3,15.3,0.6,30.5-2.7,45.6c-3.3,15.2-8.7,29.6-16.6,43
					c-12.1,20.5-28.2,37.3-48.7,49.8c-13.6,8.3-28.2,14.3-43.8,17.5C1074.4,512.7,1069,513.4,1063.6,514.3z M749.8,501.5
					c96.5,0,192.9,0,289.4,0c12.7,0,25.1-1.2,37.5-4.2c10.9-2.6,21.3-6.3,31.1-11.5c21.8-11.5,39.6-27.5,52.7-48.6
					c8.3-13.4,14.2-27.8,17-43.3c2.1-11.9,2.8-24,1.6-36.2c-1.5-14.9-5.2-29.1-11.7-42.5c-9.4-19.5-22.8-35.9-40.2-49
					c-24.5-18.4-52.1-27.8-82.5-27.9c-196.3-0.2-392.5-0.1-588.8-0.1c-17.8,0-35,3.4-51.5,10c-23.9,9.6-43.7,24.6-59.1,45.4
					c-15,20.2-23.3,42.9-25,68c-1.2,18.1,1.3,35.7,7.6,52.6c9,24,23.9,43.8,44.5,59.3c24.9,18.8,53.1,28,84.1,28
					C554.3,501.6,652,501.5,749.8,501.5z"/>
			</g>
		</g>
		<g>
			<g>
				<path class="st3" d="M749.8,501.5c-97.8,0-195.5,0.1-293.3-0.1c-31-0.1-59.2-9.3-84.1-28c-20.6-15.5-35.5-35.2-44.5-59.3
					c-6.3-16.9-8.9-34.5-7.6-52.6c1.7-25.1,10-47.7,25-68c15.4-20.8,35.1-35.8,59.1-45.4c16.5-6.6,33.7-10,51.5-10
					c196.3-0.1,392.5-0.1,588.8,0.1c30.4,0,58,9.5,82.5,27.9c17.4,13.1,30.8,29.4,40.2,49c6.5,13.4,10.2,27.6,11.7,42.5
					c1.2,12.2,0.5,24.3-1.6,36.2c-2.8,15.5-8.7,29.9-17,43.3c-13.1,21.1-30.8,37.1-52.7,48.6c-9.8,5.2-20.3,8.9-31.1,11.5
					c-12.3,3-24.8,4.2-37.5,4.2C942.7,501.4,846.3,501.5,749.8,501.5z M751.1,489.7c93.8,0,187.6,0,281.3,0c13.6,0,27-1.3,40.2-4.7
					c18.4-4.8,35.3-12.7,50.3-24.5c24.2-19,39.8-43.2,45-73.7c3-17.5,1.6-34.7-3.8-51.6c-6.1-18.8-16.6-34.9-30.8-48.7
					c-16.5-15.9-36-26.5-57.8-32.8c-13.1-3.8-26.7-5.4-40.4-5.4c-188.8,0-377.5,0-566.3,0c-10.1,0-20.1,0.9-30.1,2.8
					c-16.4,3.1-31.7,8.9-45.9,17.5c-20.4,12.3-36.6,28.6-47.4,50c-9.7,19.2-13.8,39.4-11.7,60.9c1.9,19.4,8.4,37.1,19.5,53
					c19.5,28.1,46.7,44.9,79.6,53.2c12.3,3.1,24.9,3.9,37.5,3.9C563.9,489.7,657.5,489.7,751.1,489.7z"/>
			</g>
		</g>
		<g>
			<g>
				<path class="st1" d="M751.1,489.7c-93.6,0-187.2,0-280.8,0c-12.7,0-25.2-0.8-37.5-3.9c-32.8-8.2-60-25.1-79.6-53.2
					c-11.1-15.9-17.6-33.6-19.5-53c-2.1-21.5,2-41.7,11.7-60.9c10.8-21.4,27-37.7,47.4-50c14.2-8.6,29.5-14.4,45.9-17.5
					c10-1.9,20-2.8,30.1-2.8c188.8,0,377.5,0,566.3,0c13.7,0,27.2,1.6,40.4,5.4c21.8,6.3,41.3,16.9,57.8,32.8
					c14.2,13.7,24.8,29.8,30.8,48.7c5.4,16.8,6.9,34.1,3.8,51.6c-5.3,30.5-20.9,54.7-45,73.7c-15,11.7-31.8,19.7-50.3,24.5
					c-13.2,3.4-26.6,4.7-40.2,4.7C938.6,489.7,844.9,489.7,751.1,489.7z M1052.6,377.6c12.6-4.8,21.8-12.2,24.8-25.1
					c3.2-14.1,0.8-27.2-10-37.6c-9.7-9.3-21.9-12.6-34.9-12.6c-38.7-0.2-77.4-0.1-116-0.1c-1.1,0-2.2,0.1-3.5,0.2c0,1.4,0,2.6,0,3.8
					c0.8,42,1.5,84.1,2.2,126.1c0,2.5,0.9,3.1,3.3,3.1c40.7-0.2,81.4-0.3,122.2-0.5c7,0,13.3-2.4,18.9-6.4
					c10.7-7.6,14-18.1,12.3-30.7c-0.6-4.2-2.1-8-4.7-11.4C1063.4,381.8,1058.6,379.3,1052.6,377.6z M485.3,362.3c0-1.4,0-2.6,0-3.8
					c0.3-17,0.7-34.1,1-51.1c0.1-3.9,0.1-3.9-3.7-3.9c-19.9,0-39.9,0.1-59.8-0.1c-2.8,0-3.4,0.9-3.3,3.5c0.8,42.3,1.6,84.6,2.3,127
					c0,2.4,0.8,2.9,3,2.9c18.7-0.1,37.5-0.1,56.2,0c2.1,0,2.6-0.8,2.7-2.8c0.2-13.4,0.5-26.9,0.6-40.3c0-2.4,0.7-3.2,3.2-3.2
					c10.3,0.1,20.6,0.1,30.9,0c2.6,0,3.3,0.7,3.3,3.3c-0.1,13.3,0.1,26.7,0,40c0,2.3,0.5,3.2,3,3.2c17.7-0.1,35.4-0.1,53.2,0
					c2.2,0,2.8-0.7,2.9-2.8c0.5-12.5,1.1-25,1.7-37.5c1.4-30,2.8-59.9,4.4-89.9c0.1-2.7-0.7-3.5-3.4-3.4c-19.7,0.2-39.3,0.3-59,0.4
					c-0.9,0-1.8,0.1-3,0.2c0,19.5,0,38.8,0,58.3C509.3,362.3,497.5,362.3,485.3,362.3z M733.2,343.5c1.8-0.1,3.1-0.2,4.4-0.2
					c29.8,0,59.6,0,89.3,0c5.2,0,4.9,0.8,5.2-4.9c0.6-10,0.8-20,1.4-30c0.4-5.8,0-4.9-4.7-4.9c-51.7,0-103.3,0-155,0c-6,0-6,0-5.9,6
					c1.1,41.6,2.2,83.1,3.2,124.7c0.1,2.9,1.7,2.5,3.5,2.5c49.9,0,99.8,0.1,149.7,0.1c1.1,0,2.2,0,3.4,0c0.1-0.7,0.2-1.1,0.2-1.6
					c0-6.6-0.2-13.2,0.1-19.7c0.1-2.9-0.8-3.6-3.6-3.5c-19.4,0.1-38.8,0.1-58.2,0.1c-10.3,0-20.6-0.1-30.9,0c-2.3,0-3.1-0.7-3-3
					c0.2-4.8,0.2-9.6,0.3-14.4c0.1-3.7,0.1-3.7,3.9-3.7c21.1,0,42.3,0,63.4,0.1c2.7,0,3.5-0.7,3.5-3.4c-0.2-7,0-14.1-0.1-21.1
					c0-3.6,0-3.6-3.7-3.6c-19.9,0-39.9,0-59.8,0c-1.6,0-3.2,0.2-4.7-0.1c-0.7-0.1-1.8-1.1-1.8-1.7
					C733.2,355.2,733.2,349.5,733.2,343.5z M850.5,389.3c0.6,0.1,1.2,0.3,1.7,0.3c12.7,0,25.4,0,38.1,0.1c1.9,0,2.3-0.9,2.3-2.5
					c-0.1-6.5-0.1-13,0-19.4c0.1-2.6-0.7-3.5-3.4-3.5c-12,0.1-23.9,0-35.9,0.1c-0.9,0-1.8,0.1-2.8,0.2
					C850.5,372.8,850.5,381,850.5,389.3z M626.7,364.2C626.7,364.2,626.7,364.2,626.7,364.2c-6.1,0-12.2,0-18.3,0
					c-1.8,0-2.7,0.5-2.7,2.5c0.1,6.8,0.1,13.7,0,20.5c0,1.8,0.7,2.4,2.5,2.4c12.3,0,24.6-0.1,37,0c2.1,0,2.7-0.8,2.7-2.8
					c-0.1-6.7-0.1-13.3,0-20c0-2.1-0.8-2.7-2.8-2.7C638.9,364.3,632.8,364.2,626.7,364.2z"/>
			</g>
		</g>
		<g>
			<g>
				<path class="st3" d="M1052.6,377.6c6,1.8,10.9,4.3,14.4,8.9c2.6,3.4,4.1,7.2,4.7,11.4c1.7,12.6-1.6,23.1-12.3,30.7
					c-5.6,4-11.9,6.4-18.9,6.4c-40.7,0.2-81.4,0.3-122.2,0.5c-2.4,0-3.2-0.6-3.3-3.1c-0.7-42-1.5-84.1-2.2-126.1c0-1.2,0-2.4,0-3.8
					c1.4-0.1,2.4-0.2,3.5-0.2c38.7,0,77.4-0.1,116,0.1c13,0.1,25.3,3.3,34.9,12.6c10.8,10.4,13.2,23.5,10,37.6
					C1074.4,365.4,1065.1,372.8,1052.6,377.6z M978.6,337.7c0,8.9,0,17.3,0,25.7c0,2,1.4,1.8,2.7,1.8c7.4,0,14.8,0.1,22.2,0
					c3.6,0,7-0.9,9.7-3.5c6.1-5.6,8.1-17.1-4.2-22.7c-4.4-2-8.9-1.2-13.4-1.4C990.2,337.6,984.9,337.7,978.6,337.7z M978,411.4
					c7.8,0,15.7,0,23.6,0c8.4,0,13.8-7.4,11.1-15.4c-1.5-4.5-4.9-8.3-10.6-7.9c-4.8,0.3-9.6,0.1-14.5,0.1c-3,0-6.1,0-9.6,0
					C978,396,978,403.5,978,411.4z"/>
			</g>
		</g>
		<g>
			<g>
				<path class="st3" d="M485.3,362.3c12.2,0,24,0,36.1,0c0-19.4,0-38.7,0-58.3c1.2-0.1,2.1-0.2,3-0.2c19.7-0.1,39.3-0.2,59-0.4
					c2.7,0,3.5,0.7,3.4,3.4c-1.5,30-2.9,59.9-4.4,89.9c-0.6,12.5-1.2,25-1.7,37.5c-0.1,2.1-0.7,2.8-2.9,2.8
					c-17.7-0.1-35.4-0.1-53.2,0c-2.6,0-3-0.9-3-3.2c0.1-13.3-0.1-26.7,0-40c0-2.5-0.7-3.3-3.3-3.3c-10.3,0.1-20.6,0.1-30.9,0
					c-2.5,0-3.2,0.8-3.2,3.2c-0.1,13.4-0.5,26.9-0.6,40.3c0,2-0.5,2.8-2.7,2.8c-18.7-0.1-37.5-0.1-56.2,0c-2.2,0-3-0.6-3-2.9
					c-0.7-42.3-1.4-84.6-2.3-127c-0.1-2.6,0.5-3.5,3.3-3.5c19.9,0.1,39.9,0.1,59.8,0.1c3.8,0,3.8,0,3.7,3.9c-0.4,17-0.7,34.1-1,51.1
					C485.3,359.6,485.3,360.8,485.3,362.3z"/>
			</g>
		</g>
		<g>
			<g>
				<path class="st3" d="M733.2,343.5c0,6-0.1,11.7,0.1,17.4c0,0.6,1.1,1.6,1.8,1.7c1.5,0.3,3.1,0.1,4.7,0.1c19.9,0,39.9,0,59.8,0
					c3.6,0,3.7,0,3.7,3.6c0,7-0.1,14.1,0.1,21.1c0.1,2.7-0.8,3.4-3.5,3.4c-21.1-0.1-42.3-0.1-63.4-0.1c-3.8,0-3.8,0-3.9,3.7
					c-0.1,4.8,0,9.6-0.3,14.4c-0.1,2.3,0.7,3,3,3c10.3-0.1,20.6,0,30.9,0c19.4,0,38.8,0.1,58.2-0.1c2.8,0,3.7,0.6,3.6,3.5
					c-0.2,6.6-0.1,13.2-0.1,19.7c0,0.4-0.1,0.9-0.2,1.6c-1.2,0-2.3,0-3.4,0c-49.9,0-99.8-0.1-149.7-0.1c-1.7,0-3.4,0.4-3.5-2.5
					c-1-41.6-2.1-83.1-3.2-124.7c-0.2-6.1-0.1-6,5.9-6c51.7,0,103.3,0,155,0c4.8,0,5.1-0.9,4.7,4.9c-0.6,10-0.8,20-1.4,30
					c-0.3,5.7,0.1,4.9-5.2,4.9c-29.8,0-59.6,0-89.3,0C736.3,343.3,735.1,343.5,733.2,343.5z"/>
			</g>
		</g>
		<g>
			<g>
				<path class="st3" d="M850.5,389.3c0-8.3,0-16.5,0-24.9c1-0.1,1.9-0.2,2.8-0.2c12,0,23.9,0.1,35.9-0.1c2.7,0,3.5,0.9,3.4,3.5
					c-0.2,6.5-0.1,13,0,19.4c0,1.7-0.4,2.6-2.3,2.5c-12.7-0.1-25.4,0-38.1-0.1C851.7,389.6,851.2,389.4,850.5,389.3z"/>
			</g>
		</g>
		<g>
			<g>
				<path class="st3" d="M626.7,364.2c6.1,0,12.2,0.1,18.3,0c2,0,2.8,0.6,2.8,2.7c-0.1,6.7-0.1,13.3,0,20c0,2-0.6,2.8-2.7,2.8
					c-12.3-0.1-24.6-0.1-37,0c-1.8,0-2.5-0.6-2.5-2.4c0.1-6.8,0.1-13.7,0-20.5c0-2,0.8-2.5,2.7-2.5
					C614.5,364.3,620.6,364.2,626.7,364.2C626.7,364.2,626.7,364.2,626.7,364.2z"/>
			</g>
		</g>
		<g>
			<g>
				<path class="st4" d="M978.6,337.7c6.3,0,11.6-0.1,17,0c4.5,0.1,9-0.7,13.4,1.4c12.3,5.6,10.4,17.1,4.2,22.7
					c-2.7,2.5-6.1,3.4-9.7,3.5c-7.4,0.1-14.8,0-22.2,0c-1.3,0-2.7,0.2-2.7-1.8C978.6,355,978.6,346.6,978.6,337.7z"/>
			</g>
		</g>
		<g>
			<g>
				<path class="st4" d="M978,411.4c0-7.9,0-15.5,0-23.3c3.5,0,6.6,0,9.6,0c4.8,0,9.7,0.2,14.5-0.1c5.8-0.4,9.2,3.5,10.6,7.9
					c2.6,8-2.8,15.4-11.1,15.4C993.7,411.4,985.8,411.4,978,411.4z"/>
			</g>
		</g>
	</g>
</g>
</svg>
