<svg xmlns="http://www.w3.org/2000/svg" xmlns:xlink="http://www.w3.org/1999/xlink" width="213" height="212" viewBox="0 0 213 212">
  <defs>
    <clipPath id="clip-iPhone_X_XS_11_Pro_1">
      <rect width="213" height="212"/>
    </clipPath>
  </defs>
  <g id="iPhone_X_XS_11_Pro_1" data-name="iPhone X/XS/11 Pro – 1" clip-path="url(#clip-iPhone_X_XS_11_Pro_1)">
    <rect width="213" height="212" fill="#fff"/>
    <path id="Path_645" data-name="Path 645" d="M100.09,0C45.041,0,0,45.041,0,100.09S45.041,200.18,100.09,200.18,200.18,155.14,200.18,100.09,155.14,0,100.09,0Zm65.059,152.637c-2.5-5-6.673-8.341-15.848-10.009-19.184-4.17-36.7-8.341-28.359-24.188C146.8,68.395,127.615,41.7,100.09,41.7c-28.359,0-46.709,27.525-20.852,75.9,9.175,16.682-9.175,20.018-28.359,24.188-9.175,1.668-13.345,5.839-15.848,10.009-11.677-13.345-18.35-31.7-18.35-51.713a83.408,83.408,0,1,1,166.817,0C183.5,120.108,176.826,138.458,165.149,152.637Z" transform="translate(6.063 5.934)" fill="#dc2a27"/>
  </g>
</svg>
